<svg class="icon" viewBox="0 0 1024 1024" xmlns="http://www.w3.org/2000/svg" width="200" height="200"><defs><style/></defs><path d="M380 266a50 50 0 1 0 100 0 50 50 0 1 0-100 0zM380 430a50 50 0 1 0 100 0 50 50 0 1 0-100 0zM380 594a50 50 0 1 0 100 0 50 50 0 1 0-100 0zM380 758a50 50 0 1 0 100 0 50 50 0 1 0-100 0zM544 266a50 50 0 1 0 100 0 50 50 0 1 0-100 0zM544 430a50 50 0 1 0 100 0 50 50 0 1 0-100 0zM544 594a50 50 0 1 0 100 0 50 50 0 1 0-100 0zM544 758a50 50 0 1 0 100 0 50 50 0 1 0-100 0z"/></svg>